<?xml version="1.0" standalone="no"?>
<!DOCTYPE svg PUBLIC "-//W3C//DTD SVG 20010904//EN"
 "http://www.w3.org/TR/2001/REC-SVG-20010904/DTD/svg10.dtd">
<svg version="1.0" xmlns="http://www.w3.org/2000/svg"
 width="200.000000pt" height="200.000000pt" viewBox="0 0 200.000000 200.000000"
 preserveAspectRatio="xMidYMid meet">

<g transform="translate(0.000000,200.000000) scale(0.100000,-0.100000)"
fill="#000000" stroke="none">
<path d="M585 1820 l-400 -178 -3 -309 c-2 -181 2 -342 8 -391 22 -171 90
-347 190 -498 73 -109 235 -267 338 -328 89 -53 242 -115 282 -115 40 0 193
62 282 115 103 61 264 217 338 328 100 150 168 327 190 498 6 49 10 210 8 391
l-3 308 -403 180 c-222 98 -409 179 -415 178 -7 0 -192 -81 -412 -179z m755
-139 l335 -149 3 -253 c2 -151 -2 -287 -8 -334 -40 -282 -211 -544 -449 -685
-73 -43 -189 -90 -224 -90 -38 0 -179 63 -256 115 -221 146 -372 390 -411 660
-6 48 -10 181 -8 334 l3 253 330 148 c182 81 335 148 340 149 6 1 161 -66 345
-148z"/>
<path d="M1070 1115 c-95 -102 -175 -185 -178 -185 -3 0 -38 25 -77 55 -40 30
-77 55 -82 55 -5 0 -20 -11 -33 -25 l-24 -25 84 -123 c46 -67 91 -132 99 -144
34 -48 47 -35 259 251 111 151 202 279 202 284 0 14 -40 42 -61 42 -9 0 -94
-83 -189 -185z"/>
</g>
</svg>
